# xmcd
#
# Track frame offsets:
#	150
#	14708
#	25481
#	40730
#	52081
#	65368
#	79463
#	98050
#	109058
#	121530
#	137901
#	154004
#	171103
#	185662
#	198874
#	211220
#
# Disc length: 2959 seconds
#
# Revision: 0
# Processed by: cddbd v1.5.2PL0 Copyright (c) Steve Scherf et al.
# Submitted via: audiograbber 1.83.01
#
DISCID=dd0b8d10
DTITLE=Country Ham - Diamonds in the Rough
DYEAR=2002
DGENRE=Folk
TTITLE0=Pig in a Pen
TTITLE1=Be Thankful
TTITLE2=Then We'll All Sing We're Marching to Zion
TTITLE3=I Can Read Between the Lines of Your Letter
TTITLE4=Sweet Bunch of Daisies
TTITLE5=Coal Tattoo
TTITLE6=Orphan Child
TTITLE7=Horse and Buggy
TTITLE8=Oh the Beautiful Flowers
TTITLE9=Flowers Blooming in the Wildwood
TTITLE10=New Five Cents
TTITLE11=Diamonds in the Rough
TTITLE12=Police
TTITLE13=Black Jack Davy
TTITLE14=Apache
TTITLE15=Roll On Liza Jane
EXTD=
EXTT0=
EXTT1=
EXTT2=
EXTT3=
EXTT4=
EXTT5=
EXTT6=
EXTT7=
EXTT8=
EXTT9=
EXTT10=
EXTT11=
EXTT12=
EXTT13=
EXTT14=
EXTT15=
PLAYORDER=
